<svg width="1200" height="900" viewBox="0 0 1200 900" fill="none" xmlns="http://www.w3.org/2000/svg">
  <defs>
    <linearGradient id="chromeBody" x1="0" y1="0" x2="1" y2="1">
      <stop offset="0%" stop-color="#F8FAFC"/>
      <stop offset="18%" stop-color="#CBD5E1"/>
      <stop offset="42%" stop-color="#FFFFFF"/>
      <stop offset="68%" stop-color="#94A3B8"/>
      <stop offset="100%" stop-color="#E2E8F0"/>
    </linearGradient>
    <linearGradient id="chromeDark" x1="0" y1="0" x2="1" y2="1">
      <stop offset="0%" stop-color="#475569"/>
      <stop offset="50%" stop-color="#0F172A"/>
      <stop offset="100%" stop-color="#64748B"/>
    </linearGradient>
    <linearGradient id="mesh" x1="0" y1="0" x2="0" y2="1">
      <stop offset="0%" stop-color="#E2E8F0"/>
      <stop offset="100%" stop-color="#94A3B8"/>
    </linearGradient>
    <filter id="softShadow" x="-20%" y="-20%" width="140%" height="160%">
      <feDropShadow dx="0" dy="18" stdDeviation="18" flood-color="#0F172A" flood-opacity="0.14"/>
    </filter>
    <filter id="smallShadow" x="-30%" y="-30%" width="160%" height="180%">
      <feDropShadow dx="0" dy="10" stdDeviation="10" flood-color="#0F172A" flood-opacity="0.1"/>
    </filter>
  </defs>

  <path d="M290 735C470 700 622 706 760 724C859 737 967 760 1128 822" stroke="#B91C1C" stroke-width="15" stroke-linecap="round"/>
  <path d="M740 720C817 717 896 724 1018 755" stroke="#DC2626" stroke-width="6" stroke-linecap="round" opacity="0.55"/>

  <g transform="translate(96 458) rotate(-12)" filter="url(#smallShadow)">
    <rect x="0" y="82" width="54" height="166" rx="26" fill="url(#chromeDark)"/>
    <ellipse cx="27" cy="79" rx="42" ry="56" fill="url(#mesh)"/>
    <ellipse cx="27" cy="79" rx="26" ry="37" fill="#F8FAFC" opacity="0.72"/>
  </g>

  <g transform="translate(160 382) rotate(-8)" filter="url(#smallShadow)">
    <rect x="0" y="96" width="68" height="208" rx="34" fill="url(#chromeDark)"/>
    <ellipse cx="34" cy="89" rx="54" ry="72" fill="url(#mesh)"/>
    <ellipse cx="34" cy="89" rx="33" ry="48" fill="#F8FAFC" opacity="0.65"/>
  </g>

  <g transform="translate(264 316) rotate(-4)" filter="url(#smallShadow)">
    <rect x="0" y="116" width="88" height="252" rx="42" fill="url(#chromeDark)"/>
    <ellipse cx="44" cy="102" rx="70" ry="96" fill="url(#mesh)"/>
    <ellipse cx="44" cy="102" rx="42" ry="64" fill="#FFFFFF" opacity="0.5"/>
  </g>

  <g transform="translate(560 130)" filter="url(#softShadow)">
    <ellipse cx="170" cy="180" rx="114" ry="154" fill="url(#mesh)"/>
    <ellipse cx="170" cy="180" rx="82" ry="114" fill="#F8FAFC" opacity="0.42"/>
    <rect x="108" y="264" width="124" height="286" rx="62" fill="url(#chromeBody)"/>
    <rect x="132" y="332" width="76" height="14" rx="7" fill="#CBD5E1" opacity="0.9"/>
    <rect x="132" y="370" width="76" height="14" rx="7" fill="#CBD5E1" opacity="0.88"/>
    <rect x="132" y="408" width="76" height="14" rx="7" fill="#CBD5E1" opacity="0.86"/>
    <rect x="132" y="446" width="76" height="14" rx="7" fill="#CBD5E1" opacity="0.84"/>
    <rect x="148" y="544" width="44" height="118" rx="20" fill="url(#chromeDark)"/>
    <path d="M88 544C88 602 124 640 170 640C216 640 252 602 252 544" stroke="#475569" stroke-width="20" stroke-linecap="round"/>
    <path d="M170 662V764" stroke="#334155" stroke-width="20" stroke-linecap="round"/>
    <path d="M112 778H228" stroke="#334155" stroke-width="18" stroke-linecap="round"/>
    <ellipse cx="144" cy="140" rx="24" ry="88" fill="#FFFFFF" opacity="0.52"/>
    <ellipse cx="208" cy="188" rx="16" ry="104" fill="#FFFFFF" opacity="0.22"/>
  </g>
</svg>
